<svg xmlns="http://www.w3.org/2000/svg" width="53.118" height="60.578" viewBox="0 0 53.118 60.578">
  <g id="_1495574609-map-location-solid-style-23_84564" data-name="1495574609-map-location-solid-style-23_84564" transform="translate(5 5)">
    <g id="Trazado_357" data-name="Trazado 357" transform="translate(-24.524 -20.891)" fill="#ff574f">
      <path d="M 54.26662826538086 51.38479614257813 L 51.76662826538086 51.38479614257813 L 40.40002822875977 51.38479614257813 L 37.90002822875977 51.38479614257813 L 37.90002822875977 48.88479614257813 L 37.90002822875977 38.36361694335938 L 37.90002822875977 37.00689697265625 L 39.03755950927734 36.26750564575195 L 44.67389678955078 32.60389709472656 L 46.02517700195313 31.72556686401367 L 47.38301849365234 32.59369659423828 L 53.11327743530273 36.25730514526367 L 54.26662826538086 36.99469757080078 L 54.26662826538086 38.36361694335938 L 54.26662826538086 48.88479614257813 L 54.26662826538086 51.38479614257813 Z" stroke="none"/>
      <path d="M 46.03636932373047 34.70000839233398 L 40.40002822875977 38.36361694335938 L 40.40002822875977 48.88479614257813 L 51.76662826538086 48.88479614257813 L 51.76662826538086 38.36361694335938 L 46.03636932373047 34.70000839233398 M 46.01397705078125 28.75113677978516 L 48.72967910766602 30.48739624023438 L 54.45993804931641 34.15100479125977 L 56.76662826538086 35.62577819824219 L 56.76662826538086 38.36361694335938 L 56.76662826538086 48.88479614257813 L 56.76662826538086 53.88479614257813 L 51.76662826538086 53.88479614257813 L 40.40002822875977 53.88479614257813 L 35.40002822875977 53.88479614257813 L 35.40002822875977 48.88479614257813 L 35.40002822875977 38.36361694335938 L 35.40002822875977 35.65018844604492 L 37.67508697509766 34.1713981628418 L 43.31142807006836 30.50778579711914 L 46.01397705078125 28.75113677978516 Z" stroke="none" fill="#fff"/>
    </g>
    <g id="Trazado_358" data-name="Trazado 358" transform="translate(-23.5 -20)" fill="#ff574f">
      <path d="M 45.10593795776367 73.07827758789063 C 43.62808990478516 73.07827758789063 42.36056518554688 72.27314758300781 41.74697494506836 70.96172332763672 L 38.00075531005859 64.49409484863281 C 35.80022048950195 63.815185546875 33.71234130859375 62.82062530517578 31.78091812133789 61.53010940551758 C 29.60948753356934 60.07921981811523 27.69207763671875 58.29294967651367 26.08197784423828 56.22093963623047 C 24.46818733215332 54.14416885375977 23.21087837219238 51.84167861938477 22.34496688842773 49.3774299621582 C 21.45250701904297 46.83761978149414 20.99999809265137 44.19131851196289 20.99999809265137 41.51202774047852 C 20.99999809265137 38.28192901611328 21.63778686523438 35.14222717285156 22.89565849304199 32.18014907836914 C 24.10857772827148 29.32390785217285 25.84262847900391 26.75662803649902 28.04961776733398 24.54962921142578 C 30.25661849975586 22.34262847900391 32.82388687133789 20.60858917236328 35.68012619018555 19.39565849304199 C 38.64220809936523 18.13778877258301 41.78189849853516 17.49999809265137 45.01199722290039 17.49999809265137 C 48.26429748535156 17.49999809265137 51.41755676269531 18.1381778717041 54.38418579101563 19.39679908752441 C 57.24544906616211 20.61071968078613 59.81584930419922 22.34921836853027 62.02400588989258 24.56402969360352 C 64.22674560546875 26.77340888977051 65.96184539794922 29.3491096496582 67.18109893798828 32.21957778930664 C 68.44065093994141 35.18491744995117 69.09226989746094 38.33633041381836 69.11785888671875 41.58627700805664 L 69.11793518066406 41.59611892700195 L 69.11793518066406 41.60595703125 C 69.11793518066406 44.30981063842773 68.65930938720703 46.97583770751953 67.75479125976563 49.52996826171875 C 66.87722778320313 52.00798797607422 65.60321044921875 54.31838989257813 63.96811676025391 56.39700698852539 C 62.33742904663086 58.47002792358398 60.39632797241211 60.25074768066406 58.1987190246582 61.68972015380859 C 56.25783157348633 62.96059417724609 54.16207122802734 63.9344482421875 51.95470809936523 64.59234619140625 L 48.47688293457031 70.93465423583984 C 47.87732696533203 72.22445678710938 46.54696655273438 73.07827758789063 45.10593795776367 73.07827758789063 Z M 38.68174743652344 48.68772888183594 L 51.43620681762695 48.68772888183594 L 51.43620681762695 39.53929901123047 L 51.43620681762695 37.21105575561523 L 45.01200103759766 33.0463981628418 L 38.68174743652344 37.15015029907227 L 38.68174743652344 39.53929901123047 L 38.68174743652344 48.68772888183594 Z" stroke="none"/>
      <path d="M 45.01200103759766 19.99999237060547 C 33.17570114135742 19.99999237060547 23.5 29.67571640014648 23.5 41.51202774047852 C 23.5 51.28167343139648 30.26359939575195 59.92403793334961 39.65748977661133 62.36648559570313 L 43.97867965698242 69.82677459716797 C 44.16655731201172 70.29647064208984 44.54231262207031 70.57826995849609 45.1059455871582 70.57826995849609 C 45.57562255859375 70.57826995849609 46.04533386230469 70.29647064208984 46.23320007324219 69.82677459716797 L 50.27257919311523 62.46039581298828 C 59.76039886474609 60.1119384765625 66.61793518066406 51.46953964233398 66.61793518066406 41.60596084594727 C 66.52400207519531 29.67571640014648 56.94223403930664 19.99999237060547 45.01200103759766 19.99999237060547 M 57.78767776489258 42.07564926147461 L 53.93619918823242 39.5392951965332 L 53.93619918823242 51.18772888183594 L 36.18174362182617 51.18772888183594 L 36.18174362182617 39.5392951965332 L 32.33025741577148 42.07564926147461 L 30.54541015625 39.44536209106445 L 44.16655731201172 30.61510467529297 C 44.44837188720703 30.42722702026367 44.75366973876953 30.33329010009766 45.04722595214844 30.33329010009766 C 45.34078216552734 30.33329010009766 45.62259674072266 30.42722702026367 45.85744476318359 30.61510467529297 L 59.47859191894531 39.44536209106445 L 57.78767776489258 42.07564926147461 M 45.01200103759766 14.99999237060547 C 48.60164642333984 14.99999237060547 52.08342361450195 15.70497131347656 55.36059951782227 17.09535980224609 C 58.52003479003906 18.43578338623047 61.35757827758789 20.354736328125 63.79443359375 22.79892730712891 C 66.22377777099609 25.235595703125 68.13739013671875 28.07631683349609 69.48212432861328 31.24219512939453 C 70.87104797363281 34.51211547851563 71.58959197998047 37.98574066162109 71.61778259277344 41.56659317016602 L 71.61793518066406 41.58627319335938 L 71.61793518066406 41.60596084594727 C 71.61793518066406 44.59487152099609 71.11105346679688 47.54168319702148 70.11138153076172 50.36452865600586 C 69.14269256591797 53.09984970092773 67.73690032958984 55.64950561523438 65.93304443359375 57.94266128540039 C 64.13446044921875 60.2291259765625 61.99302291870117 62.19350433349609 59.56822204589844 63.7812385559082 C 57.71865463256836 64.99231719970703 55.74147033691406 65.95930480957031 53.66726684570313 66.66880798339844 L 50.70732116699219 72.06668853759766 C 50.21598815917969 73.09014129638672 49.45638275146484 73.95219421386719 48.4914436340332 74.57655334472656 C 47.47863388061523 75.23188018798828 46.30794525146484 75.57826995849609 45.1059455871582 75.57826995849609 C 43.81905746459961 75.57826995849609 42.5959358215332 75.20502471923828 41.56881332397461 74.4989013671875 C 40.7017936706543 73.90284729003906 40.00547790527344 73.0902099609375 39.53459930419922 72.13005065917969 L 36.31415557861328 66.57012939453125 C 34.23030471801758 65.83921813964844 32.24565887451172 64.84735107421875 30.39201354980469 63.60879516601563 C 27.99715805053711 62.00862884521484 25.88288879394531 60.03909301757813 24.10792541503906 57.75491714477539 C 22.32845306396484 55.46495056152344 20.94176483154297 52.92520523071289 19.98634338378906 50.20621490478516 C 19.00007629394531 47.39943695068359 18.5 44.47429275512695 18.5 41.51202774047852 C 18.5 37.94428253173828 19.2047119140625 34.47581481933594 20.59454345703125 31.20296096801758 C 21.93345642089844 28.050048828125 23.84694671630859 25.21677398681641 26.28185653686523 22.7818603515625 C 28.71675491333008 20.34694671630859 31.55002212524414 18.43346405029297 34.70294570922852 17.09455108642578 C 37.97578811645508 15.70470428466797 41.44425582885742 14.99999237060547 45.01200103759766 14.99999237060547 Z M 48.93619918823242 38.56972503662109 L 45.01200103759766 36.02576446533203 L 41.18174362182617 38.50882339477539 L 41.18174362182617 39.5392951965332 L 41.18174362182617 46.18772888183594 L 48.93619918823242 46.18772888183594 L 48.93619918823242 39.5392951965332 L 48.93619918823242 38.56972503662109 Z" stroke="none" fill="#fff"/>
    </g>
  </g>
</svg>
